<svg width="20" height="20" viewBox="0 0 20 20" fill="none" xmlns="http://www.w3.org/2000/svg">
  <path d="M10 1.111C14.909 1.111 18.888 5.091 18.888 10C18.888 14.909 14.909 18.889 10 18.889C5.091 18.889 1.111 14.909 1.111 10C1.111 5.091 5.091 1.111 10 1.111Z" fill="#0091FF"/>
  <path fill-rule="evenodd" clip-rule="evenodd" d="M5.662 10.621C5.538 10.505 5.517 10.324 5.627 10.195L5.885 9.892C5.99 9.768 6.187 9.737 6.327 9.824L8.553 11.21C8.671 11.284 8.873 11.274 8.983 11.191L14.866 6.736C14.998 6.636 15.207 6.645 15.321 6.753L15.466 6.888C15.592 7.005 15.583 7.192 15.451 7.315L9.136 13.2C8.94 13.383 8.617 13.375 8.415 13.186L5.662 10.621Z" fill="#FFFFFF"/>
</svg>
